<svg xmlns="http://www.w3.org/2000/svg" version="1.1" xmlns:xlink="http://www.w3.org/1999/xlink" width="512" height="512" x="0" y="0" viewBox="0 0 24 24" style="enable-background:new 0 0 512 512" xml:space="preserve"><g><path fill="#303754" d="M22 10.85V8.4a2.057 2.057 0 0 0-2.06-2.06H18.6L7.65 1.78a1.516 1.516 0 0 0-2 .84L4.16 6.34h-1.1A2.057 2.057 0 0 0 1 8.4v11.88a2.057 2.057 0 0 0 2.06 2.06h16.88A2.057 2.057 0 0 0 22 20.28v-2.45a1.036 1.036 0 0 0 1-1.03v-4.92a1.036 1.036 0 0 0-1-1.03zM6.58 2.99a.5.5 0 0 1 .28-.29.553.553 0 0 1 .4 0L16 6.34h-2.42L7.66 4.37a.5.5 0 0 0-.63.29l-.65 1.68H5.24zm3.84 3.35H7.46l.33-.87zM21 20.28a1.061 1.061 0 0 1-1.06 1.06H3.06A1.061 1.061 0 0 1 2 20.28V8.4a1.067 1.067 0 0 1 1.06-1.06h16.88A1.067 1.067 0 0 1 21 8.4v2.44h-4.5a3.5 3.5 0 0 0 0 7H21zm1-3.48a.043.043 0 0 1-.04.04H16.5a2.5 2.5 0 0 1 0-5l5.5.04z" opacity="1" data-original="#303754"></path><path fill="#ffffff" d="M16.5 10.84H21V8.4a1.067 1.067 0 0 0-1.06-1.06H3.06A1.067 1.067 0 0 0 2 8.4v11.88a1.061 1.061 0 0 0 1.06 1.06h16.88A1.061 1.061 0 0 0 21 20.28v-2.44h-4.5a3.5 3.5 0 0 1 0-7zm-12-1.5h2a.5.5 0 0 1 0 1h-2a.5.5 0 0 1 0-1zm4 3h-4a.5.5 0 0 1 0-1h4a.5.5 0 0 1 0 1zM10.42 6.34H7.46l.33-.87z" opacity="1" data-original="#ffffff"></path><path fill="#2c98f6" d="M16.5 11.84a2.5 2.5 0 0 0 0 5h5.46a.043.043 0 0 0 .04-.04v-4.92zm0 4a1.5 1.5 0 1 1 1.5-1.5 1.5 1.5 0 0 1-1.5 1.5zM16 6.34h-2.42L7.66 4.37a.5.5 0 0 0-.63.29l-.65 1.68H5.24l1.34-3.35a.5.5 0 0 1 .28-.29.553.553 0 0 1 .4 0z" opacity="1" data-original="#2c98f6"></path><path fill="#303754" d="M16.5 12.84a1.5 1.5 0 1 0 1.5 1.5 1.5 1.5 0 0 0-1.5-1.5zm0 2a.5.5 0 1 1 .5-.5.5.5 0 0 1-.5.5z" opacity="1" data-original="#303754"></path><circle cx="16.5" cy="14.34" r=".5" fill="#2c98f6" opacity="1" data-original="#2c98f6"></circle><g fill="#303754"><path d="M7 9.84a.5.5 0 0 1-.5.5h-2a.5.5 0 0 1 0-1h2a.5.5 0 0 1 .5.5zM9 11.84a.5.5 0 0 1-.5.5h-4a.5.5 0 0 1 0-1h4a.5.5 0 0 1 .5.5z" fill="#303754" opacity="1" data-original="#303754"></path></g></g></svg>