<svg xmlns="http://www.w3.org/2000/svg" xmlns:xlink="http://www.w3.org/1999/xlink" width="1080" zoomAndPan="magnify" viewBox="0 0 810 809.999993" height="1080" preserveAspectRatio="xMidYMid meet" version="1.0"><defs><clipPath id="7b0cd6e25e"><path d="M 30.898438 30.898438 L 779.398438 30.898438 L 779.398438 779.398438 L 30.898438 779.398438 Z M 30.898438 30.898438 " clip-rule="nonzero"/></clipPath></defs><g clip-path="url(#7b0cd6e25e)"><path fill="#501aab" d="M 779.09375 404.996094 C 779.09375 411.117188 778.941406 417.234375 778.640625 423.351562 C 778.339844 429.464844 777.890625 435.570312 777.289062 441.664062 C 776.691406 447.753906 775.941406 453.828125 775.042969 459.886719 C 774.144531 465.941406 773.097656 471.972656 771.902344 477.976562 C 770.710938 483.980469 769.367188 489.953125 767.878906 495.894531 C 766.394531 501.832031 764.761719 507.730469 762.984375 513.589844 C 761.207031 519.449219 759.285156 525.257812 757.222656 531.023438 C 755.160156 536.789062 752.957031 542.5 750.617188 548.15625 C 748.273438 553.8125 745.792969 559.40625 743.175781 564.941406 C 740.558594 570.476562 737.804688 575.945312 734.917969 581.34375 C 732.03125 586.742188 729.015625 592.066406 725.867188 597.320312 C 722.722656 602.570312 719.445312 607.742188 716.046875 612.832031 C 712.644531 617.921875 709.121094 622.925781 705.472656 627.84375 C 701.824219 632.761719 698.058594 637.585938 694.175781 642.320312 C 690.292969 647.050781 686.292969 651.6875 682.183594 656.222656 C 678.070312 660.757812 673.851562 665.191406 669.519531 669.519531 C 665.191406 673.851562 660.757812 678.070312 656.222656 682.183594 C 651.6875 686.292969 647.050781 690.292969 642.320312 694.175781 C 637.585938 698.058594 632.761719 701.824219 627.84375 705.472656 C 622.925781 709.121094 617.921875 712.644531 612.832031 716.046875 C 607.742188 719.445312 602.570312 722.722656 597.320312 725.867188 C 592.066406 729.015625 586.742188 732.03125 581.34375 734.917969 C 575.945312 737.804688 570.476562 740.558594 564.941406 743.175781 C 559.40625 745.792969 553.8125 748.273438 548.15625 750.617188 C 542.5 752.957031 536.789062 755.160156 531.023438 757.222656 C 525.257812 759.285156 519.449219 761.207031 513.589844 762.984375 C 507.730469 764.761719 501.832031 766.394531 495.894531 767.878906 C 489.953125 769.367188 483.980469 770.710938 477.976562 771.902344 C 471.972656 773.097656 465.941406 774.144531 459.886719 775.042969 C 453.828125 775.941406 447.753906 776.691406 441.664062 777.289062 C 435.570312 777.890625 429.464844 778.339844 423.351562 778.640625 C 417.234375 778.941406 411.117188 779.09375 404.996094 779.09375 C 398.871094 779.09375 392.753906 778.941406 386.636719 778.640625 C 380.523438 778.339844 374.417969 777.890625 368.328125 777.289062 C 362.234375 776.691406 356.160156 775.941406 350.101562 775.042969 C 344.046875 774.144531 338.015625 773.097656 332.011719 771.902344 C 326.007812 770.710938 320.035156 769.367188 314.097656 767.878906 C 308.15625 766.394531 302.257812 764.761719 296.398438 762.984375 C 290.539062 761.207031 284.730469 759.285156 278.964844 757.222656 C 273.199219 755.160156 267.488281 752.957031 261.832031 750.617188 C 256.175781 748.273438 250.582031 745.792969 245.046875 743.175781 C 239.511719 740.558594 234.046875 737.804688 228.644531 734.917969 C 223.246094 732.03125 217.921875 729.015625 212.667969 725.867188 C 207.417969 722.722656 202.246094 719.445312 197.15625 716.046875 C 192.066406 712.644531 187.0625 709.121094 182.144531 705.472656 C 177.226562 701.824219 172.402344 698.058594 167.667969 694.175781 C 162.9375 690.292969 158.300781 686.292969 153.765625 682.183594 C 149.230469 678.070312 144.796875 673.851562 140.46875 669.519531 C 136.136719 665.191406 131.917969 660.757812 127.804688 656.222656 C 123.695312 651.6875 119.695312 647.050781 115.8125 642.320312 C 111.929688 637.585938 108.164062 632.761719 104.515625 627.84375 C 100.871094 622.925781 97.34375 617.921875 93.945312 612.832031 C 90.542969 607.742188 87.269531 602.570312 84.121094 597.320312 C 80.972656 592.066406 77.957031 586.742188 75.070312 581.34375 C 72.183594 575.945312 69.433594 570.476562 66.8125 564.941406 C 64.195312 559.40625 61.714844 553.8125 59.375 548.15625 C 57.03125 542.5 54.828125 536.789062 52.765625 531.023438 C 50.703125 525.257812 48.78125 519.449219 47.003906 513.589844 C 45.226562 507.730469 43.597656 501.832031 42.109375 495.894531 C 40.621094 489.953125 39.28125 483.980469 38.085938 477.976562 C 36.890625 471.972656 35.84375 465.941406 34.945312 459.886719 C 34.046875 453.828125 33.296875 447.753906 32.699219 441.664062 C 32.097656 435.570312 31.648438 429.464844 31.347656 423.351562 C 31.046875 417.234375 30.898438 411.117188 30.898438 404.996094 C 30.898438 398.871094 31.046875 392.753906 31.347656 386.636719 C 31.648438 380.523438 32.097656 374.417969 32.699219 368.328125 C 33.296875 362.234375 34.046875 356.160156 34.945312 350.101562 C 35.84375 344.046875 36.890625 338.015625 38.085938 332.011719 C 39.28125 326.007812 40.621094 320.035156 42.109375 314.097656 C 43.597656 308.15625 45.226562 302.257812 47.003906 296.398438 C 48.78125 290.539062 50.703125 284.730469 52.765625 278.964844 C 54.828125 273.199219 57.03125 267.488281 59.375 261.832031 C 61.714844 256.175781 64.195312 250.582031 66.8125 245.046875 C 69.433594 239.511719 72.183594 234.046875 75.070312 228.644531 C 77.957031 223.246094 80.972656 217.921875 84.121094 212.671875 C 87.269531 207.417969 90.542969 202.246094 93.945312 197.15625 C 97.34375 192.066406 100.871094 187.0625 104.515625 182.144531 C 108.164062 177.226562 111.929688 172.402344 115.8125 167.667969 C 119.695312 162.9375 123.695312 158.300781 127.804688 153.765625 C 131.917969 149.230469 136.136719 144.796875 140.46875 140.46875 C 144.796875 136.136719 149.230469 131.917969 153.765625 127.804688 C 158.300781 123.695312 162.9375 119.695312 167.667969 115.8125 C 172.402344 111.929688 177.226562 108.164062 182.144531 104.515625 C 187.0625 100.871094 192.066406 97.34375 197.15625 93.945312 C 202.246094 90.542969 207.417969 87.269531 212.667969 84.121094 C 217.921875 80.972656 223.246094 77.957031 228.644531 75.070312 C 234.046875 72.183594 239.511719 69.433594 245.046875 66.8125 C 250.582031 64.195312 256.175781 61.714844 261.832031 59.375 C 267.488281 57.03125 273.199219 54.828125 278.964844 52.765625 C 284.730469 50.703125 290.539062 48.78125 296.398438 47.003906 C 302.257812 45.226562 308.15625 43.597656 314.097656 42.109375 C 320.035156 40.621094 326.007812 39.28125 332.011719 38.085938 C 338.015625 36.890625 344.046875 35.84375 350.101562 34.945312 C 356.160156 34.046875 362.234375 33.296875 368.328125 32.699219 C 374.417969 32.097656 380.523438 31.648438 386.636719 31.347656 C 392.753906 31.046875 398.871094 30.898438 404.996094 30.898438 C 411.117188 30.898438 417.234375 31.046875 423.351562 31.347656 C 429.464844 31.648438 435.570312 32.097656 441.664062 32.699219 C 447.753906 33.296875 453.828125 34.046875 459.886719 34.945312 C 465.941406 35.84375 471.972656 36.890625 477.976562 38.085938 C 483.980469 39.28125 489.953125 40.621094 495.894531 42.109375 C 501.832031 43.597656 507.730469 45.226562 513.589844 47.003906 C 519.449219 48.78125 525.257812 50.703125 531.023438 52.765625 C 536.789062 54.828125 542.5 57.03125 548.15625 59.375 C 553.8125 61.714844 559.40625 64.195312 564.941406 66.8125 C 570.476562 69.433594 575.945312 72.183594 581.34375 75.070312 C 586.742188 77.957031 592.066406 80.972656 597.320312 84.121094 C 602.570312 87.269531 607.742188 90.542969 612.832031 93.945312 C 617.921875 97.34375 622.925781 100.871094 627.84375 104.515625 C 632.761719 108.164062 637.585938 111.929688 642.320312 115.8125 C 647.050781 119.695312 651.6875 123.695312 656.222656 127.804688 C 660.757812 131.917969 665.191406 136.136719 669.519531 140.46875 C 673.851562 144.796875 678.070312 149.230469 682.183594 153.765625 C 686.292969 158.300781 690.292969 162.9375 694.175781 167.667969 C 698.058594 172.402344 701.824219 177.226562 705.472656 182.144531 C 709.121094 187.0625 712.644531 192.066406 716.046875 197.15625 C 719.445312 202.246094 722.722656 207.417969 725.867188 212.671875 C 729.015625 217.921875 732.03125 223.246094 734.917969 228.644531 C 737.804688 234.046875 740.558594 239.511719 743.175781 245.046875 C 745.792969 250.582031 748.273438 256.175781 750.617188 261.832031 C 752.957031 267.488281 755.160156 273.199219 757.222656 278.964844 C 759.285156 284.730469 761.207031 290.539062 762.984375 296.398438 C 764.761719 302.257812 766.394531 308.15625 767.878906 314.097656 C 769.367188 320.035156 770.710938 326.007812 771.902344 332.011719 C 773.097656 338.015625 774.144531 344.046875 775.042969 350.101562 C 775.941406 356.160156 776.691406 362.234375 777.289062 368.328125 C 777.890625 374.417969 778.339844 380.523438 778.640625 386.636719 C 778.941406 392.753906 779.09375 398.871094 779.09375 404.996094 Z M 779.09375 404.996094 " fill-opacity="1" fill-rule="nonzero"/></g><path fill="#9e65ff" d="M 757.40625 404.996094 C 757.40625 410.761719 757.265625 416.527344 756.980469 422.285156 C 756.699219 428.046875 756.273438 433.796875 755.707031 439.535156 C 755.144531 445.277344 754.4375 451 753.589844 456.703125 C 752.746094 462.410156 751.757812 468.089844 750.632812 473.746094 C 749.507812 479.402344 748.246094 485.027344 746.84375 490.625 C 745.441406 496.21875 743.90625 501.773438 742.230469 507.292969 C 740.554688 512.8125 738.746094 518.289062 736.804688 523.71875 C 734.863281 529.148438 732.785156 534.527344 730.578125 539.855469 C 728.371094 545.183594 726.035156 550.457031 723.570312 555.667969 C 721.105469 560.882812 718.511719 566.035156 715.792969 571.121094 C 713.074219 576.207031 710.230469 581.222656 707.265625 586.167969 C 704.300781 591.117188 701.21875 595.988281 698.011719 600.785156 C 694.808594 605.578125 691.488281 610.292969 688.054688 614.925781 C 684.617188 619.558594 681.070312 624.101562 677.410156 628.5625 C 673.753906 633.019531 669.988281 637.386719 666.113281 641.660156 C 662.242188 645.933594 658.265625 650.109375 654.1875 654.1875 C 650.109375 658.265625 645.933594 662.242188 641.660156 666.113281 C 637.386719 669.988281 633.019531 673.753906 628.5625 677.410156 C 624.101562 681.070312 619.558594 684.617188 614.925781 688.054688 C 610.292969 691.488281 605.578125 694.808594 600.785156 698.011719 C 595.988281 701.21875 591.117188 704.300781 586.167969 707.265625 C 581.222656 710.230469 576.207031 713.074219 571.121094 715.792969 C 566.035156 718.511719 560.882812 721.105469 555.667969 723.570312 C 550.457031 726.035156 545.183594 728.371094 539.855469 730.578125 C 534.527344 732.785156 529.148438 734.863281 523.71875 736.804688 C 518.289062 738.746094 512.8125 740.554688 507.292969 742.230469 C 501.773438 743.90625 496.21875 745.441406 490.625 746.84375 C 485.027344 748.246094 479.402344 749.507812 473.746094 750.632812 C 468.089844 751.757812 462.410156 752.746094 456.703125 753.589844 C 451 754.4375 445.277344 755.144531 439.535156 755.707031 C 433.796875 756.273438 428.046875 756.699219 422.285156 756.980469 C 416.527344 757.265625 410.761719 757.40625 404.996094 757.40625 C 399.226562 757.40625 393.464844 757.265625 387.703125 756.980469 C 381.941406 756.699219 376.191406 756.273438 370.453125 755.707031 C 364.710938 755.144531 358.988281 754.4375 353.285156 753.589844 C 347.578125 752.746094 341.898438 751.757812 336.242188 750.632812 C 330.585938 749.507812 324.960938 748.246094 319.367188 746.84375 C 313.769531 745.441406 308.214844 743.90625 302.695312 742.230469 C 297.175781 740.554688 291.703125 738.746094 286.269531 736.804688 C 280.839844 734.863281 275.460938 732.785156 270.132812 730.578125 C 264.804688 728.371094 259.53125 726.035156 254.320312 723.570312 C 249.105469 721.105469 243.957031 718.511719 238.871094 715.792969 C 233.78125 713.074219 228.765625 710.230469 223.820312 707.265625 C 218.871094 704.300781 214 701.21875 209.207031 698.011719 C 204.410156 694.808594 199.695312 691.488281 195.0625 688.054688 C 190.429688 684.617188 185.886719 681.070312 181.425781 677.410156 C 176.96875 673.753906 172.601562 669.988281 168.328125 666.113281 C 164.054688 662.242188 159.878906 658.265625 155.800781 654.1875 C 151.722656 650.109375 147.75 645.933594 143.875 641.660156 C 140.003906 637.386719 136.234375 633.019531 132.578125 628.5625 C 128.917969 624.101562 125.371094 619.558594 121.933594 614.925781 C 118.5 610.292969 115.179688 605.578125 111.976562 600.785156 C 108.769531 595.988281 105.6875 591.117188 102.722656 586.167969 C 99.757812 581.222656 96.914062 576.207031 94.195312 571.121094 C 91.476562 566.035156 88.886719 560.882812 86.417969 555.667969 C 83.953125 550.457031 81.617188 545.183594 79.410156 539.855469 C 77.203125 534.527344 75.128906 529.148438 73.183594 523.71875 C 71.242188 518.289062 69.433594 512.8125 67.757812 507.292969 C 66.085938 501.773438 64.546875 496.21875 63.144531 490.625 C 61.742188 485.027344 60.480469 479.402344 59.355469 473.746094 C 58.230469 468.089844 57.246094 462.410156 56.398438 456.703125 C 55.550781 451 54.847656 445.277344 54.28125 439.535156 C 53.714844 433.796875 53.292969 428.046875 53.007812 422.285156 C 52.726562 416.527344 52.582031 410.761719 52.582031 404.996094 C 52.582031 399.226562 52.726562 393.464844 53.007812 387.703125 C 53.292969 381.941406 53.714844 376.191406 54.28125 370.453125 C 54.847656 364.710938 55.550781 358.988281 56.398438 353.285156 C 57.246094 347.578125 58.230469 341.898438 59.355469 336.242188 C 60.480469 330.585938 61.742188 324.960938 63.144531 319.367188 C 64.546875 313.769531 66.085938 308.214844 67.757812 302.695312 C 69.433594 297.175781 71.242188 291.703125 73.183594 286.269531 C 75.128906 280.839844 77.203125 275.460938 79.410156 270.132812 C 81.617188 264.804688 83.953125 259.535156 86.417969 254.320312 C 88.886719 249.105469 91.476562 243.957031 94.195312 238.871094 C 96.914062 233.78125 99.757812 228.765625 102.722656 223.820312 C 105.6875 218.871094 108.769531 214 111.976562 209.207031 C 115.179688 204.410156 118.5 199.695312 121.933594 195.0625 C 125.371094 190.429688 128.917969 185.886719 132.578125 181.425781 C 136.234375 176.96875 140.003906 172.601562 143.875 168.328125 C 147.75 164.054688 151.722656 159.878906 155.800781 155.800781 C 159.878906 151.722656 164.054688 147.75 168.328125 143.875 C 172.601562 140.003906 176.96875 136.234375 181.425781 132.578125 C 185.886719 128.917969 190.429688 125.371094 195.0625 121.933594 C 199.695312 118.5 204.410156 115.179688 209.207031 111.976562 C 214 108.769531 218.871094 105.6875 223.820312 102.722656 C 228.765625 99.757812 233.78125 96.914062 238.871094 94.195312 C 243.957031 91.476562 249.105469 88.886719 254.320312 86.417969 C 259.53125 83.953125 264.804688 81.617188 270.132812 79.410156 C 275.460938 77.203125 280.839844 75.128906 286.269531 73.183594 C 291.703125 71.242188 297.175781 69.433594 302.695312 67.757812 C 308.214844 66.085938 313.769531 64.546875 319.367188 63.144531 C 324.960938 61.742188 330.585938 60.480469 336.242188 59.355469 C 341.898438 58.230469 347.578125 57.246094 353.285156 56.398438 C 358.988281 55.550781 364.710938 54.847656 370.453125 54.28125 C 376.191406 53.714844 381.941406 53.292969 387.703125 53.007812 C 393.464844 52.726562 399.226562 52.582031 404.996094 52.582031 C 410.761719 52.582031 416.527344 52.726562 422.285156 53.007812 C 428.046875 53.292969 433.796875 53.714844 439.535156 54.28125 C 445.277344 54.847656 451 55.550781 456.703125 56.398438 C 462.410156 57.246094 468.089844 58.230469 473.746094 59.355469 C 479.402344 60.480469 485.027344 61.742188 490.625 63.144531 C 496.21875 64.546875 501.773438 66.085938 507.292969 67.757812 C 512.8125 69.433594 518.289062 71.242188 523.71875 73.183594 C 529.148438 75.128906 534.527344 77.203125 539.855469 79.410156 C 545.183594 81.617188 550.457031 83.953125 555.667969 86.417969 C 560.882812 88.886719 566.035156 91.476562 571.121094 94.195312 C 576.207031 96.914062 581.222656 99.757812 586.167969 102.722656 C 591.117188 105.6875 595.988281 108.769531 600.785156 111.976562 C 605.578125 115.179688 610.292969 118.5 614.925781 121.933594 C 619.558594 125.371094 624.101562 128.917969 628.5625 132.578125 C 633.019531 136.234375 637.386719 140.003906 641.660156 143.875 C 645.933594 147.75 650.109375 151.722656 654.1875 155.800781 C 658.265625 159.878906 662.242188 164.054688 666.113281 168.328125 C 669.988281 172.601562 673.753906 176.96875 677.410156 181.425781 C 681.070312 185.886719 684.617188 190.429688 688.054688 195.0625 C 691.488281 199.695312 694.808594 204.410156 698.011719 209.207031 C 701.21875 214 704.300781 218.871094 707.265625 223.820312 C 710.230469 228.765625 713.074219 233.78125 715.792969 238.871094 C 718.511719 243.957031 721.105469 249.105469 723.570312 254.320312 C 726.035156 259.535156 728.371094 264.804688 730.578125 270.132812 C 732.785156 275.460938 734.863281 280.839844 736.804688 286.269531 C 738.746094 291.703125 740.554688 297.175781 742.230469 302.695312 C 743.90625 308.214844 745.441406 313.769531 746.84375 319.367188 C 748.246094 324.960938 749.507812 330.585938 750.632812 336.242188 C 751.757812 341.898438 752.746094 347.578125 753.589844 353.285156 C 754.4375 358.988281 755.144531 364.710938 755.707031 370.453125 C 756.273438 376.191406 756.699219 381.941406 756.980469 387.703125 C 757.265625 393.464844 757.40625 399.226562 757.40625 404.996094 Z M 757.40625 404.996094 " fill-opacity="1" fill-rule="nonzero"/><path fill="#763cda" d="M 703.1875 404.996094 C 703.1875 409.875 703.070312 414.75 702.828125 419.625 C 702.589844 424.5 702.230469 429.367188 701.753906 434.222656 C 701.273438 439.078125 700.675781 443.921875 699.960938 448.75 C 699.246094 453.574219 698.410156 458.382812 697.457031 463.167969 C 696.507812 467.957031 695.4375 472.714844 694.25 477.449219 C 693.066406 482.183594 691.765625 486.886719 690.347656 491.554688 C 688.929688 496.226562 687.402344 500.859375 685.757812 505.453125 C 684.113281 510.046875 682.355469 514.601562 680.488281 519.109375 C 678.621094 523.617188 676.644531 528.078125 674.558594 532.488281 C 672.472656 536.902344 670.277344 541.257812 667.976562 545.5625 C 665.675781 549.867188 663.273438 554.109375 660.765625 558.296875 C 658.253906 562.484375 655.644531 566.605469 652.933594 570.660156 C 650.222656 574.71875 647.414062 578.707031 644.507812 582.628906 C 641.597656 586.546875 638.597656 590.394531 635.5 594.167969 C 632.40625 597.9375 629.21875 601.632812 625.941406 605.25 C 622.664062 608.863281 619.300781 612.398438 615.847656 615.847656 C 612.398438 619.300781 608.863281 622.664062 605.25 625.941406 C 601.632812 629.21875 597.9375 632.40625 594.167969 635.5 C 590.394531 638.597656 586.546875 641.597656 582.628906 644.507812 C 578.707031 647.414062 574.71875 650.222656 570.660156 652.933594 C 566.605469 655.644531 562.484375 658.253906 558.296875 660.765625 C 554.109375 663.273438 549.867188 665.675781 545.5625 667.976562 C 541.257812 670.277344 536.902344 672.472656 532.488281 674.558594 C 528.078125 676.644531 523.617188 678.621094 519.109375 680.488281 C 514.601562 682.355469 510.046875 684.113281 505.453125 685.757812 C 500.859375 687.402344 496.226562 688.929688 491.554688 690.347656 C 486.886719 691.765625 482.183594 693.066406 477.449219 694.25 C 472.714844 695.4375 467.957031 696.507812 463.167969 697.457031 C 458.382812 698.410156 453.574219 699.246094 448.75 699.960938 C 443.921875 700.675781 439.078125 701.273438 434.222656 701.753906 C 429.367188 702.230469 424.5 702.589844 419.625 702.828125 C 414.75 703.070312 409.875 703.1875 404.996094 703.1875 C 400.113281 703.1875 395.238281 703.070312 390.363281 702.828125 C 385.488281 702.589844 380.621094 702.230469 375.765625 701.753906 C 370.910156 701.273438 366.066406 700.675781 361.242188 699.960938 C 356.414062 699.246094 351.605469 698.410156 346.820312 697.457031 C 342.035156 696.507812 337.273438 695.4375 332.539062 694.25 C 327.804688 693.066406 323.101562 691.765625 318.433594 690.347656 C 313.761719 688.929688 309.132812 687.402344 304.535156 685.757812 C 299.941406 684.113281 295.390625 682.355469 290.878906 680.488281 C 286.371094 678.621094 281.910156 676.644531 277.5 674.558594 C 273.089844 672.472656 268.730469 670.277344 264.425781 667.976562 C 260.121094 665.675781 255.878906 663.273438 251.691406 660.765625 C 247.507812 658.253906 243.382812 655.644531 239.328125 652.933594 C 235.269531 650.222656 231.28125 647.414062 227.359375 644.507812 C 223.441406 641.597656 219.59375 638.597656 215.824219 635.5 C 212.050781 632.40625 208.355469 629.21875 204.738281 625.941406 C 201.125 622.664062 197.589844 619.300781 194.140625 615.847656 C 190.6875 612.398438 187.324219 608.863281 184.046875 605.25 C 180.769531 601.632812 177.582031 597.9375 174.488281 594.167969 C 171.390625 590.394531 168.390625 586.546875 165.484375 582.628906 C 162.574219 578.707031 159.765625 574.71875 157.054688 570.660156 C 154.34375 566.605469 151.734375 562.484375 149.226562 558.296875 C 146.714844 554.109375 144.3125 549.867188 142.011719 545.5625 C 139.710938 541.257812 137.515625 536.902344 135.429688 532.488281 C 133.34375 528.078125 131.367188 523.617188 129.5 519.109375 C 127.632812 514.601562 125.875 510.046875 124.230469 505.453125 C 122.589844 500.859375 121.058594 496.226562 119.640625 491.554688 C 118.222656 486.886719 116.921875 482.183594 115.738281 477.449219 C 114.550781 472.714844 113.484375 467.957031 112.53125 463.167969 C 111.578125 458.382812 110.746094 453.574219 110.027344 448.75 C 109.3125 443.921875 108.714844 439.078125 108.238281 434.222656 C 107.757812 429.367188 107.398438 424.5 107.160156 419.625 C 106.921875 414.75 106.800781 409.875 106.800781 404.996094 C 106.800781 400.113281 106.921875 395.238281 107.160156 390.363281 C 107.398438 385.488281 107.757812 380.625 108.238281 375.765625 C 108.714844 370.910156 109.3125 366.066406 110.027344 361.242188 C 110.746094 356.414062 111.578125 351.605469 112.53125 346.820312 C 113.484375 342.035156 114.550781 337.273438 115.738281 332.539062 C 116.921875 327.804688 118.222656 323.101562 119.640625 318.433594 C 121.058594 313.761719 122.589844 309.132812 124.230469 304.535156 C 125.875 299.941406 127.632812 295.390625 129.5 290.878906 C 131.367188 286.371094 133.34375 281.910156 135.429688 277.5 C 137.515625 273.089844 139.710938 268.730469 142.011719 264.425781 C 144.3125 260.125 146.714844 255.878906 149.226562 251.691406 C 151.734375 247.507812 154.34375 243.382812 157.054688 239.328125 C 159.765625 235.269531 162.574219 231.28125 165.484375 227.359375 C 168.390625 223.441406 171.390625 219.59375 174.488281 215.824219 C 177.582031 212.050781 180.769531 208.355469 184.046875 204.738281 C 187.324219 201.125 190.6875 197.589844 194.140625 194.140625 C 197.589844 190.6875 201.125 187.324219 204.738281 184.046875 C 208.355469 180.769531 212.050781 177.582031 215.824219 174.488281 C 219.59375 171.390625 223.441406 168.390625 227.359375 165.484375 C 231.28125 162.574219 235.269531 159.765625 239.328125 157.054688 C 243.382812 154.34375 247.507812 151.734375 251.691406 149.226562 C 255.878906 146.714844 260.121094 144.3125 264.425781 142.011719 C 268.730469 139.710938 273.089844 137.515625 277.5 135.429688 C 281.910156 133.34375 286.371094 131.367188 290.878906 129.5 C 295.390625 127.632812 299.941406 125.875 304.535156 124.230469 C 309.132812 122.589844 313.761719 121.058594 318.433594 119.640625 C 323.101562 118.222656 327.804688 116.921875 332.539062 115.738281 C 337.273438 114.550781 342.035156 113.484375 346.820312 112.53125 C 351.605469 111.578125 356.414062 110.746094 361.242188 110.027344 C 366.066406 109.3125 370.910156 108.714844 375.765625 108.238281 C 380.625 107.757812 385.488281 107.398438 390.363281 107.160156 C 395.238281 106.921875 400.113281 106.800781 404.996094 106.800781 C 409.875 106.800781 414.75 106.921875 419.625 107.160156 C 424.5 107.398438 429.367188 107.757812 434.222656 108.238281 C 439.078125 108.714844 443.921875 109.3125 448.75 110.027344 C 453.574219 110.746094 458.382812 111.578125 463.167969 112.53125 C 467.957031 113.484375 472.714844 114.550781 477.449219 115.738281 C 482.183594 116.921875 486.886719 118.222656 491.554688 119.640625 C 496.226562 121.058594 500.859375 122.589844 505.453125 124.230469 C 510.046875 125.875 514.601562 127.632812 519.109375 129.5 C 523.617188 131.367188 528.078125 133.34375 532.488281 135.429688 C 536.902344 137.515625 541.257812 139.710938 545.5625 142.011719 C 549.867188 144.3125 554.109375 146.714844 558.296875 149.226562 C 562.484375 151.734375 566.605469 154.34375 570.660156 157.054688 C 574.71875 159.765625 578.707031 162.574219 582.628906 165.484375 C 586.546875 168.390625 590.394531 171.390625 594.167969 174.488281 C 597.9375 177.582031 601.632812 180.769531 605.25 184.046875 C 608.863281 187.324219 612.398438 190.6875 615.847656 194.140625 C 619.300781 197.589844 622.664062 201.125 625.941406 204.738281 C 629.21875 208.355469 632.40625 212.050781 635.5 215.824219 C 638.597656 219.59375 641.597656 223.441406 644.507812 227.359375 C 647.414062 231.28125 650.222656 235.269531 652.933594 239.328125 C 655.644531 243.382812 658.253906 247.507812 660.765625 251.691406 C 663.273438 255.878906 665.675781 260.121094 667.976562 264.425781 C 670.277344 268.730469 672.472656 273.089844 674.558594 277.5 C 676.644531 281.910156 678.621094 286.371094 680.488281 290.878906 C 682.355469 295.390625 684.113281 299.941406 685.757812 304.535156 C 687.402344 309.132812 688.929688 313.761719 690.347656 318.433594 C 691.765625 323.101562 693.066406 327.804688 694.25 332.539062 C 695.4375 337.273438 696.507812 342.035156 697.457031 346.820312 C 698.410156 351.605469 699.246094 356.414062 699.960938 361.242188 C 700.675781 366.066406 701.273438 370.910156 701.753906 375.765625 C 702.230469 380.625 702.589844 385.488281 702.828125 390.363281 C 703.070312 395.238281 703.1875 400.113281 703.1875 404.996094 Z M 703.1875 404.996094 " fill-opacity="1" fill-rule="nonzero"/><path fill="#fffdf7" d="M 490.398438 264.699219 C 472.984375 259.851562 462.753906 241.734375 467.609375 224.320312 C 470.039062 215.59375 464.9375 206.558594 456.214844 204.128906 C 447.488281 201.699219 438.453125 206.800781 436.023438 215.523438 L 383.851562 402.886719 C 376.015625 394.832031 366.035156 388.667969 354.445312 385.445312 C 319.492188 375.710938 283.140625 396.226562 273.40625 431.179688 C 263.671875 466.132812 284.195312 502.476562 319.140625 512.210938 C 354.09375 521.945312 390.4375 501.429688 400.171875 466.476562 L 452.375 278.992188 C 460.175781 286.972656 470.089844 293.082031 481.59375 296.28125 C 499.007812 301.128906 509.238281 319.246094 504.382812 336.660156 C 501.953125 345.382812 507.054688 354.421875 515.777344 356.851562 C 524.503906 359.28125 533.539062 354.179688 535.96875 345.457031 C 545.683594 310.628906 525.230469 274.398438 490.398438 264.699219 Z M 490.398438 264.699219 " fill-opacity="1" fill-rule="nonzero"/><path fill="#fffdf7" d="M 495.519531 416.820312 C 484.652344 419.574219 473.570312 412.976562 470.8125 402.109375 C 469.433594 396.667969 463.902344 393.375 458.460938 394.753906 C 453.019531 396.136719 449.726562 401.667969 451.105469 407.105469 L 480.753906 524.007812 C 474.058594 522.085938 466.785156 521.851562 459.554688 523.683594 C 437.75 529.214844 424.503906 551.457031 430.035156 573.261719 C 435.566406 595.066406 457.808594 608.304688 479.613281 602.773438 C 501.421875 597.242188 514.664062 575 509.132812 553.195312 L 479.464844 436.214844 C 486.125 438.109375 493.339844 438.339844 500.515625 436.519531 C 511.382812 433.765625 522.464844 440.363281 525.21875 451.230469 C 526.601562 456.671875 532.132812 459.96875 537.570312 458.585938 C 543.011719 457.207031 546.308594 451.675781 544.925781 446.234375 C 539.414062 424.5 517.25 411.308594 495.519531 416.820312 Z M 495.519531 416.820312 " fill-opacity="1" fill-rule="nonzero"/></svg>