<svg xmlns="http://www.w3.org/2000/svg" xmlns:xlink="http://www.w3.org/1999/xlink" width="1080" zoomAndPan="magnify" viewBox="0 0 810 809.999993" height="1080" preserveAspectRatio="xMidYMid meet" version="1.0"><defs><clipPath id="d086a116ad"><path d="M 30.898438 30.898438 L 779.398438 30.898438 L 779.398438 779.398438 L 30.898438 779.398438 Z M 30.898438 30.898438 " clip-rule="nonzero"/></clipPath></defs><g clip-path="url(#d086a116ad)"><path fill="#ffb300" d="M 779.398438 405.148438 C 779.398438 411.273438 779.246094 417.394531 778.945312 423.511719 C 778.644531 429.628906 778.195312 435.734375 777.59375 441.828125 C 776.996094 447.925781 776.246094 454.003906 775.347656 460.0625 C 774.449219 466.121094 773.402344 472.152344 772.207031 478.160156 C 771.011719 484.167969 769.667969 490.140625 768.179688 496.082031 C 766.691406 502.023438 765.058594 507.925781 763.28125 513.785156 C 761.503906 519.648438 759.582031 525.460938 757.519531 531.226562 C 755.457031 536.996094 753.253906 542.707031 750.910156 548.367188 C 748.566406 554.023438 746.082031 559.621094 743.464844 565.160156 C 740.847656 570.695312 738.09375 576.164062 735.207031 581.566406 C 732.320312 586.96875 729.300781 592.296875 726.152344 597.550781 C 723.003906 602.804688 719.726562 607.976562 716.324219 613.070312 C 712.921875 618.160156 709.394531 623.167969 705.746094 628.085938 C 702.097656 633.007812 698.332031 637.832031 694.445312 642.570312 C 690.558594 647.304688 686.5625 651.941406 682.449219 656.476562 C 678.335938 661.015625 674.113281 665.449219 669.78125 669.78125 C 665.449219 674.113281 661.015625 678.335938 656.476562 682.449219 C 651.941406 686.5625 647.304688 690.558594 642.570312 694.445312 C 637.832031 698.332031 633.007812 702.097656 628.085938 705.746094 C 623.167969 709.394531 618.160156 712.921875 613.070312 716.324219 C 607.976562 719.726562 602.804688 723.003906 597.550781 726.152344 C 592.296875 729.300781 586.96875 732.320312 581.566406 735.207031 C 576.164062 738.09375 570.695312 740.847656 565.160156 743.464844 C 559.621094 746.082031 554.023438 748.566406 548.367188 750.910156 C 542.707031 753.253906 536.996094 755.457031 531.226562 757.519531 C 525.460938 759.582031 519.648438 761.503906 513.785156 763.28125 C 507.925781 765.058594 502.023438 766.691406 496.082031 768.179688 C 490.140625 769.667969 484.167969 771.011719 478.160156 772.207031 C 472.152344 773.402344 466.121094 774.449219 460.0625 775.347656 C 454.003906 776.246094 447.925781 776.996094 441.828125 777.59375 C 435.734375 778.195312 429.628906 778.644531 423.511719 778.945312 C 417.394531 779.246094 411.273438 779.398438 405.148438 779.398438 C 399.023438 779.398438 392.902344 779.246094 386.785156 778.945312 C 380.664062 778.644531 374.558594 778.195312 368.464844 777.59375 C 362.367188 776.996094 356.292969 776.246094 350.234375 775.347656 C 344.175781 774.449219 338.140625 773.402344 332.132812 772.207031 C 326.128906 771.011719 320.152344 769.667969 314.210938 768.179688 C 308.269531 766.691406 302.367188 765.058594 296.507812 763.28125 C 290.648438 761.503906 284.832031 759.582031 279.066406 757.519531 C 273.300781 755.457031 267.585938 753.253906 261.925781 750.910156 C 256.269531 748.566406 250.671875 746.082031 245.132812 743.464844 C 239.597656 740.847656 234.128906 738.09375 228.726562 735.207031 C 223.324219 732.320312 217.996094 729.300781 212.742188 726.152344 C 207.492188 723.003906 202.316406 719.726562 197.226562 716.324219 C 192.132812 712.921875 187.125 709.394531 182.207031 705.746094 C 177.285156 702.097656 172.460938 698.332031 167.726562 694.445312 C 162.992188 690.558594 158.355469 686.5625 153.816406 682.449219 C 149.277344 678.335938 144.84375 674.113281 140.511719 669.78125 C 136.179688 665.449219 131.960938 661.015625 127.847656 656.476562 C 123.734375 651.941406 119.734375 647.304688 115.847656 642.570312 C 111.960938 637.832031 108.195312 633.007812 104.546875 628.085938 C 100.898438 623.167969 97.371094 618.160156 93.96875 613.070312 C 90.566406 607.976562 87.289062 602.804688 84.140625 597.550781 C 80.992188 592.296875 77.976562 586.96875 75.085938 581.566406 C 72.199219 576.164062 69.449219 570.695312 66.828125 565.160156 C 64.210938 559.621094 61.730469 554.023438 59.386719 548.367188 C 57.042969 542.707031 54.835938 536.996094 52.773438 531.226562 C 50.710938 525.460938 48.789062 519.648438 47.011719 513.785156 C 45.234375 507.925781 43.601562 502.023438 42.113281 496.082031 C 40.625 490.140625 39.28125 484.167969 38.089844 478.160156 C 36.894531 472.152344 35.847656 466.121094 34.949219 460.0625 C 34.050781 454.003906 33.300781 447.925781 32.699219 441.828125 C 32.097656 435.734375 31.648438 429.628906 31.347656 423.511719 C 31.046875 417.394531 30.898438 411.273438 30.898438 405.148438 C 30.898438 399.023438 31.046875 392.902344 31.347656 386.785156 C 31.648438 380.664062 32.097656 374.558594 32.699219 368.464844 C 33.300781 362.367188 34.050781 356.292969 34.949219 350.234375 C 35.847656 344.175781 36.894531 338.140625 38.089844 332.132812 C 39.28125 326.128906 40.625 320.152344 42.113281 314.210938 C 43.601562 308.269531 45.234375 302.367188 47.011719 296.507812 C 48.789062 290.648438 50.710938 284.832031 52.773438 279.066406 C 54.835938 273.300781 57.042969 267.585938 59.386719 261.925781 C 61.730469 256.269531 64.210938 250.671875 66.828125 245.132812 C 69.449219 239.597656 72.199219 234.128906 75.085938 228.726562 C 77.976562 223.324219 80.992188 217.996094 84.140625 212.742188 C 87.289062 207.492188 90.566406 202.316406 93.96875 197.226562 C 97.371094 192.132812 100.898438 187.125 104.546875 182.207031 C 108.195312 177.285156 111.960938 172.460938 115.847656 167.726562 C 119.734375 162.992188 123.734375 158.355469 127.847656 153.816406 C 131.960938 149.277344 136.179688 144.84375 140.511719 140.511719 C 144.84375 136.179688 149.277344 131.960938 153.816406 127.847656 C 158.355469 123.734375 162.992188 119.734375 167.726562 115.847656 C 172.460938 111.960938 177.285156 108.195312 182.207031 104.546875 C 187.125 100.898438 192.132812 97.371094 197.226562 93.96875 C 202.316406 90.566406 207.492188 87.289062 212.742188 84.140625 C 217.996094 80.992188 223.324219 77.976562 228.726562 75.089844 C 234.128906 72.199219 239.597656 69.449219 245.132812 66.828125 C 250.671875 64.210938 256.269531 61.730469 261.925781 59.386719 C 267.585938 57.042969 273.300781 54.835938 279.066406 52.773438 C 284.832031 50.710938 290.648438 48.789062 296.507812 47.011719 C 302.367188 45.234375 308.269531 43.601562 314.210938 42.113281 C 320.152344 40.625 326.128906 39.28125 332.132812 38.089844 C 338.140625 36.894531 344.175781 35.847656 350.234375 34.949219 C 356.292969 34.050781 362.367188 33.300781 368.464844 32.699219 C 374.558594 32.097656 380.664062 31.648438 386.785156 31.347656 C 392.902344 31.046875 399.023438 30.898438 405.148438 30.898438 C 411.273438 30.898438 417.394531 31.046875 423.511719 31.347656 C 429.628906 31.648438 435.734375 32.097656 441.828125 32.699219 C 447.925781 33.300781 454.003906 34.050781 460.0625 34.949219 C 466.121094 35.847656 472.152344 36.894531 478.160156 38.089844 C 484.167969 39.28125 490.140625 40.625 496.082031 42.113281 C 502.023438 43.601562 507.925781 45.234375 513.785156 47.011719 C 519.648438 48.789062 525.460938 50.710938 531.226562 52.773438 C 536.996094 54.835938 542.707031 57.042969 548.367188 59.386719 C 554.023438 61.730469 559.621094 64.210938 565.160156 66.828125 C 570.695312 69.449219 576.164062 72.199219 581.566406 75.089844 C 586.96875 77.976562 592.296875 80.992188 597.550781 84.140625 C 602.804688 87.289062 607.976562 90.566406 613.070312 93.96875 C 618.160156 97.371094 623.167969 100.898438 628.085938 104.546875 C 633.007812 108.195312 637.832031 111.960938 642.570312 115.847656 C 647.304688 119.734375 651.941406 123.734375 656.476562 127.847656 C 661.015625 131.960938 665.449219 136.179688 669.78125 140.511719 C 674.113281 144.84375 678.335938 149.277344 682.449219 153.816406 C 686.5625 158.355469 690.558594 162.992188 694.445312 167.726562 C 698.332031 172.460938 702.097656 177.285156 705.746094 182.207031 C 709.394531 187.125 712.921875 192.132812 716.324219 197.226562 C 719.726562 202.316406 723.003906 207.492188 726.152344 212.742188 C 729.300781 217.996094 732.320312 223.324219 735.207031 228.726562 C 738.09375 234.128906 740.847656 239.597656 743.464844 245.132812 C 746.082031 250.671875 748.566406 256.269531 750.910156 261.925781 C 753.253906 267.585938 755.457031 273.300781 757.519531 279.066406 C 759.582031 284.832031 761.503906 290.648438 763.28125 296.507812 C 765.058594 302.367188 766.691406 308.269531 768.179688 314.210938 C 769.667969 320.152344 771.011719 326.128906 772.207031 332.132812 C 773.402344 338.140625 774.449219 344.175781 775.347656 350.234375 C 776.246094 356.292969 776.996094 362.367188 777.59375 368.464844 C 778.195312 374.558594 778.644531 380.664062 778.945312 386.785156 C 779.246094 392.902344 779.398438 399.023438 779.398438 405.148438 Z M 779.398438 405.148438 " fill-opacity="1" fill-rule="nonzero"/></g><path fill="#ffca28" d="M 757.703125 405.148438 C 757.703125 410.917969 757.558594 416.683594 757.277344 422.445312 C 756.992188 428.207031 756.570312 433.960938 756.003906 439.703125 C 755.4375 445.445312 754.730469 451.171875 753.886719 456.878906 C 753.039062 462.585938 752.050781 468.269531 750.925781 473.925781 C 749.800781 479.585938 748.539062 485.214844 747.136719 490.8125 C 745.734375 496.40625 744.195312 501.964844 742.519531 507.488281 C 740.84375 513.007812 739.035156 518.488281 737.09375 523.917969 C 735.148438 529.351562 733.074219 534.734375 730.863281 540.0625 C 728.65625 545.394531 726.320312 550.667969 723.851562 555.882812 C 721.386719 561.097656 718.792969 566.25 716.070312 571.339844 C 713.351562 576.429688 710.507812 581.445312 707.542969 586.394531 C 704.578125 591.34375 701.492188 596.21875 698.285156 601.015625 C 695.078125 605.8125 691.757812 610.527344 688.320312 615.164062 C 684.882812 619.796875 681.335938 624.34375 677.675781 628.804688 C 674.015625 633.265625 670.246094 637.632812 666.371094 641.90625 C 662.496094 646.183594 658.519531 650.359375 654.441406 654.441406 C 650.359375 658.519531 646.183594 662.496094 641.90625 666.371094 C 637.632812 670.246094 633.265625 674.015625 628.804688 677.675781 C 624.34375 681.335938 619.796875 684.882812 615.164062 688.320312 C 610.527344 691.757812 605.8125 695.078125 601.015625 698.285156 C 596.21875 701.492188 591.34375 704.578125 586.394531 707.542969 C 581.445312 710.507812 576.429688 713.351562 571.339844 716.070312 C 566.25 718.792969 561.097656 721.386719 555.882812 723.851562 C 550.667969 726.320312 545.394531 728.65625 540.0625 730.863281 C 534.734375 733.074219 529.351562 735.148438 523.917969 737.09375 C 518.484375 739.035156 513.007812 740.84375 507.488281 742.519531 C 501.964844 744.195312 496.40625 745.734375 490.808594 747.136719 C 485.214844 748.539062 479.585938 749.800781 473.925781 750.925781 C 468.269531 752.050781 462.585938 753.039062 456.878906 753.886719 C 451.171875 754.730469 445.445312 755.4375 439.703125 756.003906 C 433.960938 756.570312 428.207031 756.992188 422.445312 757.277344 C 416.683594 757.558594 410.917969 757.703125 405.148438 757.703125 C 399.378906 757.703125 393.609375 757.558594 387.847656 757.277344 C 382.085938 756.992188 376.332031 756.570312 370.589844 756.003906 C 364.847656 755.4375 359.125 754.730469 353.417969 753.886719 C 347.710938 753.039062 342.027344 752.050781 336.367188 750.925781 C 330.707031 749.800781 325.078125 748.539062 319.484375 747.136719 C 313.886719 745.734375 308.328125 744.195312 302.804688 742.519531 C 297.285156 740.84375 291.808594 739.035156 286.375 737.09375 C 280.941406 735.148438 275.5625 733.074219 270.230469 730.863281 C 264.898438 728.65625 259.625 726.320312 254.410156 723.851562 C 249.195312 721.386719 244.042969 718.792969 238.953125 716.070312 C 233.867188 713.351562 228.847656 710.507812 223.898438 707.542969 C 218.949219 704.578125 214.074219 701.492188 209.277344 698.285156 C 204.480469 695.078125 199.765625 691.757812 195.128906 688.320312 C 190.496094 684.882812 185.949219 681.335938 181.488281 677.675781 C 177.027344 674.015625 172.660156 670.246094 168.386719 666.371094 C 164.109375 662.496094 159.933594 658.519531 155.851562 654.441406 C 151.773438 650.359375 147.796875 646.183594 143.921875 641.90625 C 140.046875 637.632812 136.277344 633.265625 132.617188 628.804688 C 128.957031 624.34375 125.410156 619.796875 121.972656 615.164062 C 118.535156 610.527344 115.214844 605.8125 112.007812 601.015625 C 108.804688 596.21875 105.71875 591.34375 102.75 586.394531 C 99.785156 581.445312 96.941406 576.429688 94.222656 571.339844 C 91.5 566.25 88.910156 561.097656 86.441406 555.882812 C 83.976562 550.667969 81.636719 545.394531 79.429688 540.0625 C 77.222656 534.734375 75.144531 529.351562 73.203125 523.917969 C 71.257812 518.488281 69.449219 513.007812 67.773438 507.488281 C 66.097656 501.964844 64.558594 496.40625 63.15625 490.808594 C 61.757812 485.214844 60.492188 479.585938 59.367188 473.925781 C 58.242188 468.269531 57.253906 462.585938 56.410156 456.878906 C 55.5625 451.171875 54.855469 445.445312 54.289062 439.703125 C 53.726562 433.960938 53.300781 428.207031 53.015625 422.445312 C 52.734375 416.683594 52.59375 410.917969 52.59375 405.148438 C 52.59375 399.378906 52.734375 393.609375 53.015625 387.847656 C 53.300781 382.085938 53.726562 376.332031 54.289062 370.589844 C 54.855469 364.847656 55.5625 359.125 56.410156 353.417969 C 57.253906 347.710938 58.242188 342.027344 59.367188 336.367188 C 60.492188 330.707031 61.757812 325.078125 63.15625 319.484375 C 64.558594 313.886719 66.097656 308.328125 67.773438 302.804688 C 69.449219 297.285156 71.257812 291.808594 73.203125 286.375 C 75.144531 280.941406 77.222656 275.5625 79.429688 270.230469 C 81.636719 264.898438 83.976562 259.625 86.441406 254.410156 C 88.910156 249.195312 91.5 244.042969 94.222656 238.953125 C 96.941406 233.867188 99.785156 228.847656 102.75 223.898438 C 105.71875 218.949219 108.804688 214.074219 112.007812 209.277344 C 115.214844 204.480469 118.535156 199.765625 121.972656 195.128906 C 125.410156 190.496094 128.957031 185.949219 132.617188 181.488281 C 136.277344 177.027344 140.046875 172.660156 143.921875 168.386719 C 147.796875 164.109375 151.773438 159.933594 155.851562 155.851562 C 159.933594 151.773438 164.109375 147.796875 168.386719 143.921875 C 172.660156 140.046875 177.027344 136.277344 181.488281 132.617188 C 185.949219 128.957031 190.496094 125.410156 195.128906 121.972656 C 199.765625 118.535156 204.480469 115.214844 209.277344 112.007812 C 214.074219 108.804688 218.949219 105.71875 223.898438 102.75 C 228.847656 99.785156 233.867188 96.941406 238.953125 94.222656 C 244.042969 91.5 249.195312 88.910156 254.410156 86.441406 C 259.625 83.976562 264.898438 81.636719 270.230469 79.429688 C 275.5625 77.222656 280.941406 75.144531 286.375 73.203125 C 291.808594 71.257812 297.285156 69.449219 302.804688 67.773438 C 308.328125 66.097656 313.886719 64.558594 319.484375 63.15625 C 325.078125 61.757812 330.707031 60.492188 336.367188 59.367188 C 342.027344 58.242188 347.710938 57.253906 353.417969 56.410156 C 359.125 55.5625 364.847656 54.855469 370.589844 54.289062 C 376.332031 53.726562 382.085938 53.300781 387.847656 53.015625 C 393.609375 52.734375 399.378906 52.59375 405.148438 52.59375 C 410.917969 52.59375 416.683594 52.734375 422.445312 53.015625 C 428.207031 53.300781 433.960938 53.726562 439.703125 54.289062 C 445.445312 54.855469 451.171875 55.5625 456.878906 56.410156 C 462.585938 57.253906 468.269531 58.242188 473.925781 59.367188 C 479.585938 60.492188 485.214844 61.757812 490.8125 63.15625 C 496.40625 64.558594 501.964844 66.097656 507.488281 67.773438 C 513.007812 69.449219 518.484375 71.257812 523.917969 73.203125 C 529.351562 75.144531 534.734375 77.222656 540.0625 79.429688 C 545.394531 81.636719 550.667969 83.976562 555.882812 86.441406 C 561.097656 88.910156 566.25 91.5 571.339844 94.222656 C 576.429688 96.941406 581.445312 99.785156 586.394531 102.75 C 591.34375 105.71875 596.21875 108.804688 601.015625 112.007812 C 605.8125 115.214844 610.527344 118.535156 615.164062 121.972656 C 619.796875 125.410156 624.34375 128.957031 628.804688 132.617188 C 633.265625 136.277344 637.632812 140.046875 641.90625 143.921875 C 646.183594 147.796875 650.359375 151.773438 654.441406 155.851562 C 658.519531 159.933594 662.496094 164.109375 666.371094 168.386719 C 670.246094 172.660156 674.015625 177.027344 677.675781 181.488281 C 681.335938 185.949219 684.882812 190.496094 688.320312 195.128906 C 691.757812 199.765625 695.078125 204.480469 698.285156 209.277344 C 701.492188 214.074219 704.578125 218.949219 707.542969 223.898438 C 710.507812 228.847656 713.351562 233.867188 716.070312 238.953125 C 718.792969 244.042969 721.386719 249.195312 723.851562 254.410156 C 726.320312 259.625 728.65625 264.898438 730.863281 270.230469 C 733.074219 275.5625 735.148438 280.941406 737.09375 286.375 C 739.035156 291.808594 740.84375 297.285156 742.519531 302.804688 C 744.195312 308.328125 745.734375 313.886719 747.136719 319.484375 C 748.539062 325.078125 749.800781 330.707031 750.925781 336.367188 C 752.050781 342.027344 753.039062 347.710938 753.886719 353.417969 C 754.730469 359.125 755.4375 364.847656 756.003906 370.589844 C 756.570312 376.332031 756.992188 382.085938 757.277344 387.847656 C 757.558594 393.609375 757.703125 399.378906 757.703125 405.148438 Z M 757.703125 405.148438 " fill-opacity="1" fill-rule="nonzero"/><path fill="#ffa000" d="M 703.460938 405.148438 C 703.460938 410.027344 703.34375 414.910156 703.101562 419.785156 C 702.863281 424.660156 702.503906 429.527344 702.027344 434.386719 C 701.546875 439.246094 700.949219 444.089844 700.234375 448.917969 C 699.515625 453.75 698.683594 458.558594 697.730469 463.34375 C 696.777344 468.132812 695.707031 472.894531 694.523438 477.632812 C 693.335938 482.367188 692.035156 487.070312 690.617188 491.742188 C 689.199219 496.414062 687.667969 501.050781 686.023438 505.644531 C 684.378906 510.242188 682.621094 514.796875 680.753906 519.308594 C 678.886719 523.816406 676.90625 528.28125 674.820312 532.691406 C 672.734375 537.105469 670.539062 541.464844 668.238281 545.773438 C 665.9375 550.078125 663.53125 554.324219 661.019531 558.511719 C 658.511719 562.699219 655.898438 566.824219 653.1875 570.882812 C 650.472656 574.941406 647.664062 578.933594 644.757812 582.851562 C 641.847656 586.773438 638.84375 590.621094 635.746094 594.394531 C 632.652344 598.171875 629.460938 601.867188 626.183594 605.484375 C 622.90625 609.101562 619.539062 612.636719 616.085938 616.085938 C 612.636719 619.539062 609.101562 622.90625 605.484375 626.183594 C 601.867188 629.460938 598.171875 632.652344 594.394531 635.746094 C 590.621094 638.84375 586.773438 641.847656 582.851562 644.753906 C 578.929688 647.664062 574.941406 650.472656 570.882812 653.1875 C 566.824219 655.898438 562.699219 658.511719 558.511719 661.019531 C 554.324219 663.53125 550.078125 665.9375 545.773438 668.238281 C 541.464844 670.539062 537.105469 672.734375 532.691406 674.820312 C 528.28125 676.90625 523.816406 678.886719 519.308594 680.753906 C 514.796875 682.621094 510.242188 684.378906 505.644531 686.023438 C 501.050781 687.667969 496.414062 689.199219 491.742188 690.617188 C 487.070312 692.035156 482.367188 693.335938 477.632812 694.523438 C 472.894531 695.707031 468.132812 696.777344 463.34375 697.730469 C 458.558594 698.683594 453.75 699.515625 448.917969 700.234375 C 444.089844 700.949219 439.246094 701.546875 434.386719 702.027344 C 429.527344 702.503906 424.660156 702.863281 419.785156 703.101562 C 414.910156 703.34375 410.027344 703.460938 405.148438 703.460938 C 400.265625 703.460938 395.386719 703.34375 390.507812 703.101562 C 385.632812 702.863281 380.765625 702.503906 375.90625 702.027344 C 371.046875 701.546875 366.203125 700.949219 361.375 700.234375 C 356.546875 699.515625 351.738281 698.683594 346.949219 697.730469 C 342.160156 696.777344 337.398438 695.707031 332.664062 694.523438 C 327.925781 693.335938 323.222656 692.035156 318.550781 690.617188 C 313.878906 689.199219 309.246094 687.667969 304.648438 686.023438 C 300.050781 684.378906 295.496094 682.621094 290.988281 680.753906 C 286.476562 678.886719 282.015625 676.90625 277.601562 674.820312 C 273.1875 672.734375 268.828125 670.539062 264.523438 668.238281 C 260.214844 665.9375 255.96875 663.53125 251.78125 661.019531 C 247.59375 658.511719 243.472656 655.898438 239.410156 653.1875 C 235.351562 650.472656 231.363281 647.664062 227.441406 644.757812 C 223.519531 641.847656 219.671875 638.84375 215.898438 635.746094 C 212.125 632.652344 208.429688 629.460938 204.8125 626.183594 C 201.191406 622.90625 197.660156 619.539062 194.207031 616.085938 C 190.753906 612.636719 187.386719 609.101562 184.109375 605.484375 C 180.832031 601.867188 177.644531 598.171875 174.546875 594.394531 C 171.449219 590.621094 168.445312 586.773438 165.539062 582.851562 C 162.628906 578.933594 159.820312 574.941406 157.105469 570.882812 C 154.394531 566.824219 151.785156 562.699219 149.273438 558.511719 C 146.761719 554.324219 144.359375 550.078125 142.054688 545.773438 C 139.753906 541.464844 137.558594 537.105469 135.472656 532.691406 C 133.386719 528.28125 131.40625 523.816406 129.539062 519.308594 C 127.671875 514.796875 125.914062 510.242188 124.269531 505.644531 C 122.625 501.050781 121.09375 496.414062 119.675781 491.742188 C 118.261719 487.070312 116.957031 482.367188 115.773438 477.632812 C 114.585938 472.894531 113.515625 468.132812 112.5625 463.34375 C 111.609375 458.558594 110.777344 453.75 110.058594 448.917969 C 109.34375 444.089844 108.746094 439.246094 108.269531 434.386719 C 107.789062 429.527344 107.429688 424.660156 107.191406 419.785156 C 106.953125 414.910156 106.832031 410.027344 106.832031 405.148438 C 106.832031 400.265625 106.953125 395.386719 107.191406 390.507812 C 107.429688 385.632812 107.789062 380.765625 108.269531 375.90625 C 108.746094 371.046875 109.34375 366.203125 110.058594 361.375 C 110.777344 356.546875 111.609375 351.738281 112.5625 346.949219 C 113.515625 342.160156 114.585938 337.398438 115.773438 332.664062 C 116.957031 327.925781 118.261719 323.222656 119.675781 318.550781 C 121.09375 313.878906 122.625 309.246094 124.269531 304.648438 C 125.914062 300.050781 127.671875 295.496094 129.539062 290.988281 C 131.40625 286.476562 133.386719 282.015625 135.472656 277.601562 C 137.558594 273.1875 139.753906 268.828125 142.054688 264.523438 C 144.359375 260.214844 146.761719 255.96875 149.273438 251.78125 C 151.785156 247.59375 154.394531 243.472656 157.105469 239.410156 C 159.820312 235.351562 162.628906 231.363281 165.539062 227.441406 C 168.445312 223.519531 171.449219 219.671875 174.546875 215.898438 C 177.644531 212.125 180.832031 208.429688 184.109375 204.8125 C 187.386719 201.191406 190.753906 197.660156 194.207031 194.207031 C 197.660156 190.753906 201.191406 187.386719 204.8125 184.109375 C 208.429688 180.832031 212.125 177.644531 215.898438 174.546875 C 219.671875 171.449219 223.519531 168.445312 227.441406 165.539062 C 231.363281 162.628906 235.351562 159.820312 239.410156 157.105469 C 243.472656 154.394531 247.59375 151.785156 251.78125 149.273438 C 255.96875 146.761719 260.214844 144.359375 264.523438 142.054688 C 268.828125 139.753906 273.1875 137.5625 277.601562 135.472656 C 282.015625 133.386719 286.476562 131.40625 290.988281 129.539062 C 295.496094 127.671875 300.050781 125.914062 304.648438 124.269531 C 309.246094 122.625 313.878906 121.09375 318.550781 119.675781 C 323.222656 118.261719 327.925781 116.957031 332.664062 115.773438 C 337.398438 114.585938 342.160156 113.515625 346.949219 112.5625 C 351.738281 111.609375 356.546875 110.777344 361.375 110.058594 C 366.203125 109.34375 371.046875 108.746094 375.90625 108.269531 C 380.765625 107.789062 385.632812 107.429688 390.507812 107.191406 C 395.386719 106.953125 400.265625 106.832031 405.148438 106.832031 C 410.027344 106.832031 414.910156 106.953125 419.785156 107.191406 C 424.660156 107.429688 429.527344 107.789062 434.386719 108.269531 C 439.246094 108.746094 444.089844 109.34375 448.917969 110.058594 C 453.75 110.777344 458.558594 111.609375 463.34375 112.5625 C 468.132812 113.515625 472.894531 114.585938 477.632812 115.773438 C 482.367188 116.957031 487.070312 118.261719 491.742188 119.675781 C 496.414062 121.09375 501.050781 122.625 505.644531 124.269531 C 510.242188 125.914062 514.796875 127.671875 519.308594 129.539062 C 523.816406 131.40625 528.28125 133.386719 532.691406 135.472656 C 537.105469 137.5625 541.464844 139.753906 545.773438 142.054688 C 550.078125 144.359375 554.324219 146.761719 558.511719 149.273438 C 562.699219 151.785156 566.824219 154.394531 570.882812 157.105469 C 574.941406 159.820312 578.929688 162.628906 582.851562 165.539062 C 586.773438 168.445312 590.621094 171.449219 594.394531 174.546875 C 598.171875 177.644531 601.867188 180.832031 605.484375 184.109375 C 609.101562 187.386719 612.636719 190.753906 616.085938 194.207031 C 619.539062 197.660156 622.90625 201.191406 626.183594 204.8125 C 629.460938 208.429688 632.652344 212.125 635.746094 215.898438 C 638.84375 219.671875 641.847656 223.519531 644.753906 227.441406 C 647.664062 231.363281 650.472656 235.351562 653.1875 239.410156 C 655.898438 243.472656 658.511719 247.59375 661.019531 251.78125 C 663.53125 255.96875 665.9375 260.214844 668.238281 264.523438 C 670.539062 268.828125 672.734375 273.1875 674.820312 277.601562 C 676.90625 282.015625 678.886719 286.476562 680.753906 290.988281 C 682.621094 295.496094 684.378906 300.050781 686.023438 304.648438 C 687.667969 309.246094 689.199219 313.878906 690.617188 318.550781 C 692.035156 323.222656 693.335938 327.925781 694.523438 332.664062 C 695.707031 337.398438 696.777344 342.160156 697.730469 346.949219 C 698.683594 351.738281 699.515625 356.546875 700.234375 361.375 C 700.949219 366.203125 701.546875 371.046875 702.027344 375.90625 C 702.503906 380.765625 702.863281 385.632812 703.101562 390.507812 C 703.34375 395.386719 703.460938 400.265625 703.460938 405.148438 Z M 703.460938 405.148438 " fill-opacity="1" fill-rule="nonzero"/><path fill="#fffdf7" d="M 490.398438 264.699219 C 472.984375 259.851562 462.753906 241.734375 467.609375 224.320312 C 470.039062 215.59375 464.9375 206.558594 456.214844 204.128906 C 447.488281 201.699219 438.453125 206.800781 436.023438 215.523438 L 383.851562 402.886719 C 376.015625 394.832031 366.035156 388.667969 354.445312 385.445312 C 319.492188 375.710938 283.140625 396.226562 273.40625 431.179688 C 263.671875 466.132812 284.195312 502.476562 319.140625 512.210938 C 354.09375 521.945312 390.4375 501.429688 400.171875 466.476562 L 452.375 278.992188 C 460.175781 286.972656 470.089844 293.082031 481.59375 296.28125 C 499.007812 301.128906 509.238281 319.246094 504.382812 336.660156 C 501.953125 345.382812 507.054688 354.421875 515.777344 356.851562 C 524.503906 359.28125 533.539062 354.179688 535.96875 345.457031 C 545.683594 310.628906 525.230469 274.398438 490.398438 264.699219 Z M 490.398438 264.699219 " fill-opacity="1" fill-rule="nonzero"/><path fill="#fffdf7" d="M 495.519531 416.820312 C 484.652344 419.574219 473.570312 412.976562 470.8125 402.109375 C 469.433594 396.667969 463.902344 393.375 458.460938 394.753906 C 453.019531 396.136719 449.726562 401.667969 451.105469 407.105469 L 480.753906 524.007812 C 474.058594 522.085938 466.785156 521.851562 459.554688 523.683594 C 437.75 529.214844 424.503906 551.457031 430.035156 573.261719 C 435.566406 595.066406 457.808594 608.304688 479.613281 602.773438 C 501.421875 597.242188 514.664062 575 509.132812 553.195312 L 479.464844 436.214844 C 486.125 438.109375 493.339844 438.339844 500.515625 436.519531 C 511.382812 433.765625 522.464844 440.363281 525.21875 451.230469 C 526.601562 456.671875 532.132812 459.96875 537.570312 458.585938 C 543.011719 457.207031 546.308594 451.675781 544.925781 446.234375 C 539.414062 424.5 517.25 411.308594 495.519531 416.820312 Z M 495.519531 416.820312 " fill-opacity="1" fill-rule="nonzero"/></svg>